<?xml version="1.0" encoding="iso-8859-1"?>
<!-- Generator: Adobe Illustrator 16.0.0, SVG Export Plug-In . SVG Version: 6.00 Build 0)  -->
<!DOCTYPE svg PUBLIC "-//W3C//DTD SVG 1.1//EN" "http://www.w3.org/Graphics/SVG/1.1/DTD/svg11.dtd">
<svg xmlns="http://www.w3.org/2000/svg" xmlns:xlink="http://www.w3.org/1999/xlink" version="1.1" id="Capa_1" x="0px" y="0px" width="512px" height="512px" viewBox="0 0 47.954 47.954" style="enable-background:new 0 0 47.954 47.954;" xml:space="preserve">
<g>
	<g id="Question_Bubble">
		<g>
			<path d="M5.522,47.954c-0.214,0-0.425-0.068-0.601-0.2c-0.268-0.201-0.417-0.522-0.397-0.856l0.7-12.329     c0.031-0.552,0.503-0.971,1.055-0.94c0.552,0.031,0.973,0.503,0.941,1.055l-0.614,10.83l10.224-3.609     c0.524-0.18,1.093,0.091,1.276,0.61c0.183,0.521-0.09,1.092-0.61,1.276L5.855,47.896C5.746,47.936,5.634,47.954,5.522,47.954z" fill="#933EC5"/>
			<path d="M23.923,44.926c-2.394,0-4.755-0.386-7.052-1.153l0.633-1.896c3.036,1.014,6.194,1.295,9.39,0.834     c5.412-0.78,10.195-3.62,13.469-7.996c3.272-4.375,4.646-9.764,3.865-15.174C42.621,8.378,32.228,0.6,21.06,2.209     c-5.409,0.777-10.192,3.617-13.466,7.995c-3.274,4.377-4.648,9.765-3.868,15.172c0.446,3.112,1.564,6,3.321,8.583l-1.654,1.125     c-1.93-2.837-3.156-6.007-3.647-9.423C0.891,19.726,2.398,13.811,5.993,9.006c3.595-4.806,8.845-7.923,14.782-8.778     c12.266-1.754,23.669,6.773,25.433,19.026c0.856,5.938-0.649,11.854-4.243,16.658s-8.845,7.921-14.784,8.777     C26.089,44.847,25.003,44.926,23.923,44.926z" fill="#933EC5"/>
		</g>
		<g>
			<g>
				<path style="stroke-width:1.5;stroke-linecap:round;stroke-linejoin:round;stroke-miterlimit:10;" d="      M21.3,16.57" stroke="#933EC5" fill="#933EC5"/>
				<path style="stroke-width:1.5;stroke-linecap:round;stroke-linejoin:round;stroke-miterlimit:10;" d="      M17.456,16.658" stroke="#933EC5" fill="#933EC5"/>
				<path d="M19.421,18.797c-0.006,0-0.012,0-0.018,0c-1.459-0.006-2.514-0.804-2.689-2.033c-0.059-0.41,0.226-0.79,0.636-0.849      c0.41-0.071,0.791,0.226,0.849,0.636c0.093,0.646,0.798,0.744,1.21,0.746c0.006,0,0.013,0,0.02,0c1,0,1.031-0.228,1.115-0.83      c0.058-0.409,0.435-0.698,0.847-0.64c0.41,0.058,0.696,0.437,0.64,0.847C21.822,18.162,21.04,18.797,19.421,18.797z" fill="#933EC5"/>
			</g>
			<g>
				<path style="stroke-width:1.5;stroke-linecap:round;stroke-linejoin:round;stroke-miterlimit:10;" d="      M25.058,27.691" stroke="#933EC5" fill="#933EC5"/>
				<path style="stroke-width:1.5;stroke-linecap:round;stroke-linejoin:round;stroke-miterlimit:10;" d="      M21.242,27.691" stroke="#933EC5" fill="#933EC5"/>
				<path d="M23.146,29.85c-1.488,0-2.653-0.947-2.653-2.157c0-0.414,0.336-0.75,0.75-0.75s0.75,0.336,0.75,0.75      c0,0.312,0.493,0.657,1.153,0.657c0.659,0,1.151-0.347,1.151-0.657c0-0.414,0.336-0.75,0.75-0.75s0.75,0.336,0.75,0.75      C25.797,28.901,24.632,29.85,23.146,29.85z" fill="#933EC5"/>
			</g>
			<path d="M25.045,28.441L25.045,28.441c-0.415,0-0.75-0.336-0.75-0.751c0.001-1.057,0.017-2.893,0.113-3.31     c0.078-0.342,0.3-0.515,0.96-1.027c1.389-1.076,4.637-3.598,4.637-6.733c0-3.911-1.988-5.895-5.909-5.895     c-2.157,0-3.824,0.582-4.821,1.684c-0.89,0.982-1.252,2.374-1.076,4.137c0.041,0.412-0.26,0.779-0.672,0.82     c-0.408,0.044-0.779-0.259-0.82-0.672c-0.22-2.201,0.271-3.982,1.456-5.292c1.289-1.424,3.341-2.177,5.934-2.177     c4.708,0,7.409,2.695,7.409,7.395c0,3.87-3.655,6.708-5.217,7.919c-0.181,0.141-0.331,0.253-0.436,0.341     c-0.034,0.479-0.057,1.741-0.058,2.812C25.795,28.105,25.459,28.441,25.045,28.441z M20.5,27.709c0,0-0.053-2.414-0.053-3.962     c0-1.142,1.117-1.938,2.41-2.857c1.563-1.113,3.335-2.376,3.335-4.269c0-1.607-0.49-2.098-2.097-2.098     c-1.318,0-1.964,0.333-2.066,2.226c-0.022,0.413-0.361,0.737-0.79,0.708c-0.413-0.022-0.73-0.376-0.708-0.79     c0.136-2.485,1.268-3.644,3.564-3.644c2.42,0,3.597,1.177,3.597,3.598c0,2.666-2.291,4.298-3.965,5.49     c-0.751,0.535-1.78,1.27-1.78,1.637c0,1.534,0.053,3.927,0.053,3.929L20.5,27.709z" fill="#933EC5"/>
		</g>
		<path d="M23.176,37.351c-1.519,0-2.754-1.235-2.754-2.756c0-1.52,1.235-2.755,2.754-2.755s2.754,1.235,2.754,2.755    C25.93,36.115,24.695,37.351,23.176,37.351z M23.176,33.34c-0.691,0-1.254,0.562-1.254,1.255s0.562,1.256,1.254,1.256    s1.254-0.562,1.254-1.256S23.867,33.34,23.176,33.34z" fill="#933EC5"/>
	</g>
	<g>
	</g>
	<g>
	</g>
	<g>
	</g>
	<g>
	</g>
	<g>
	</g>
	<g>
	</g>
	<g>
	</g>
	<g>
	</g>
	<g>
	</g>
	<g>
	</g>
	<g>
	</g>
	<g>
	</g>
	<g>
	</g>
	<g>
	</g>
	<g>
	</g>
</g>
<g>
</g>
<g>
</g>
<g>
</g>
<g>
</g>
<g>
</g>
<g>
</g>
<g>
</g>
<g>
</g>
<g>
</g>
<g>
</g>
<g>
</g>
<g>
</g>
<g>
</g>
<g>
</g>
<g>
</g>
</svg>
